<svg xmlns="http://www.w3.org/2000/svg" viewBox="0 0 800 600" width="800" height="600">
<defs>
<radialGradient id="bg" cx="50%" cy="42%" r="72%">
  <stop offset="0%" stop-color="#dcebe8"/><stop offset="55%" stop-color="#cadfdb"/><stop offset="100%" stop-color="#b3d0cb"/>
</radialGradient>
<linearGradient id="gold" x1="0" y1="0" x2="1" y2="1">
  <stop offset="0%" stop-color="#d9bd77"/><stop offset="100%" stop-color="#b08a35"/>
</linearGradient>
</defs>
<rect width="800" height="600" fill="url(#bg)"/>
<circle cx="400.0" cy="276.0" r="250" fill="none" stroke="#b08a35" stroke-opacity="0.16" stroke-width="1"/>
<circle cx="400.0" cy="276.0" r="190" fill="none" stroke="#b08a35" stroke-opacity="0.12" stroke-width="1"/>
<circle cx="400.0" cy="276.0" r="130" fill="none" stroke="#b08a35" stroke-opacity="0.09" stroke-width="1"/>
<line x1="400.0" y1="144.0" x2="256.0" y2="252.0" stroke="#b08a35" stroke-opacity="0.42" stroke-width="1.4"/>
<line x1="400.0" y1="144.0" x2="544.0" y2="252.0" stroke="#b08a35" stroke-opacity="0.42" stroke-width="1.4"/>
<line x1="256.0" y1="252.0" x2="256.0" y2="396.0" stroke="#b08a35" stroke-opacity="0.42" stroke-width="1.4"/>
<line x1="544.0" y1="252.0" x2="544.0" y2="396.0" stroke="#b08a35" stroke-opacity="0.42" stroke-width="1.4"/>
<line x1="256.0" y1="396.0" x2="400.0" y2="492.0" stroke="#b08a35" stroke-opacity="0.42" stroke-width="1.4"/>
<line x1="544.0" y1="396.0" x2="400.0" y2="492.0" stroke="#b08a35" stroke-opacity="0.42" stroke-width="1.4"/>
<circle cx="400.0" cy="144.0" r="14" fill="#b08a35" fill-opacity="0.10"/>
<circle cx="400.0" cy="144.0" r="9" fill="url(#gold)"/>
<circle cx="256.0" cy="252.0" r="11" fill="#b08a35" fill-opacity="0.10"/>
<circle cx="256.0" cy="252.0" r="6" fill="url(#gold)"/>
<circle cx="544.0" cy="252.0" r="11" fill="#b08a35" fill-opacity="0.10"/>
<circle cx="544.0" cy="252.0" r="6" fill="url(#gold)"/>
<circle cx="256.0" cy="396.0" r="14" fill="#b08a35" fill-opacity="0.10"/>
<circle cx="256.0" cy="396.0" r="9" fill="url(#gold)"/>
<circle cx="544.0" cy="396.0" r="11" fill="#b08a35" fill-opacity="0.10"/>
<circle cx="544.0" cy="396.0" r="6" fill="url(#gold)"/>
<circle cx="400.0" cy="492.0" r="11" fill="#b08a35" fill-opacity="0.10"/>
<circle cx="400.0" cy="492.0" r="6" fill="url(#gold)"/>
<line x1="272" y1="525" x2="528" y2="525" stroke="#b08a35" stroke-opacity="0.45" stroke-width="1"/>
<text x="400.0" y="567" text-anchor="middle" font-family="Georgia,'Times New Roman',serif" font-size="30" letter-spacing="5" fill="#143035" fill-opacity="0.72">TIRZEPATIDE</text>
</svg>