<svg xmlns="http://www.w3.org/2000/svg" viewBox="0 0 800 800" width="800" height="800"><defs>
<linearGradient id="bg" x1="0" y1="0" x2="0" y2="1"><stop offset="0%" stop-color="#e9f2ef"/><stop offset="100%" stop-color="#c4dcd7"/></linearGradient>
<linearGradient id="glass" x1="0" y1="0" x2="1" y2="0">
 <stop offset="0%" stop-color="#c8dedb" stop-opacity=".85"/><stop offset="12%" stop-color="#ffffff" stop-opacity=".92"/>
 <stop offset="34%" stop-color="#e4efed" stop-opacity=".5"/><stop offset="70%" stop-color="#cadedb" stop-opacity=".55"/>
 <stop offset="88%" stop-color="#ffffff" stop-opacity=".8"/><stop offset="100%" stop-color="#b9d2ce" stop-opacity=".85"/></linearGradient>
<linearGradient id="alu" x1="0" y1="0" x2="1" y2="0">
 <stop offset="0%" stop-color="#8f9b99"/><stop offset="14%" stop-color="#e8eeed"/><stop offset="34%" stop-color="#b6c1bf"/>
 <stop offset="58%" stop-color="#f2f6f5"/><stop offset="80%" stop-color="#a7b3b1"/><stop offset="100%" stop-color="#7f8c8a"/></linearGradient>
<linearGradient id="cap" x1="0" y1="0" x2="1" y2="0">
 <stop offset="0%" stop-color="#26564f"/><stop offset="22%" stop-color="#3f7f77"/><stop offset="60%" stop-color="#26564f"/><stop offset="100%" stop-color="#3f7f77"/></linearGradient>
<linearGradient id="lab" x1="0" y1="0" x2="1" y2="0">
 <stop offset="0%" stop-color="#dfe9e6"/><stop offset="12%" stop-color="#fbfdfc"/><stop offset="60%" stop-color="#f4f8f7"/><stop offset="100%" stop-color="#d8e4e1"/></linearGradient>
<linearGradient id="powder" x1="0" y1="0" x2="0" y2="1"><stop offset="0%" stop-color="#ffffff" stop-opacity=".95"/><stop offset="100%" stop-color="#e3ece9" stop-opacity=".9"/></linearGradient>
<radialGradient id="sh" cx="50%" cy="50%" r="50%"><stop offset="0%" stop-color="#143035" stop-opacity=".3"/><stop offset="100%" stop-color="#143035" stop-opacity="0"/></radialGradient>
</defs><rect width="800" height="800" fill="url(#bg)"/><ellipse cx="400" cy="628" rx="150" ry="26" fill="url(#sh)"/>
<rect x="358" y="96" width="84" height="70" rx="10" fill="url(#alu)"/>
<rect x="380" y="70" width="40" height="34" rx="8" fill="url(#alu)"/>
<rect x="366" y="166" width="68" height="26" rx="6" fill="#9fabaa"/>
<path d="M336 192 h128 v368 a30 30 0 0 1 -30 30 h-68 a30 30 0 0 1 -30 -30 z" fill="url(#glass)" stroke="#ffffff" stroke-opacity=".7"/>
<rect x="336" y="352" width="128" height="84" fill="url(#lab)"/>
<rect x="336" y="352" width="128" height="2.5" fill="#c9a961" fill-opacity=".85"/>
<rect x="336" y="433.5" width="128" height="2.5" fill="#c9a961" fill-opacity=".85"/>
<text x="400" y="398" text-anchor="middle" font-family="Georgia,serif" font-size="14" letter-spacing="1.8" fill="#1d4d4a" fill-opacity="1">SERENEQUE</text>
<rect x="348" y="206" width="14" height="350" rx="7" fill="#ffffff" fill-opacity=".28"/></svg>